<svg id="visual" viewBox="0 0 900 600" width="900" height="600" xmlns="http://www.w3.org/2000/svg" xmlns:xlink="http://www.w3.org/1999/xlink" version="1.1"><g stroke-width="1" stroke-linejoin="bevel"><path d="M379 307L389 239L334 273Z" fill="#007864" stroke="#007864"></path><path d="M334 273L372 363L379 307Z" fill="#9eb91c" stroke="#9eb91c"></path><path d="M517 180L471 138L389 239Z" fill="#b5bd00" stroke="#b5bd00"></path><path d="M389 239L304 174L334 273Z" fill="#9eb91c" stroke="#9eb91c"></path><path d="M230 160L230 332L334 273Z" fill="#078063" stroke="#078063"></path><path d="M334 273L230 332L372 363Z" fill="#007864" stroke="#007864"></path><path d="M230 332L329 419L372 363Z" fill="#60a744" stroke="#60a744"></path><path d="M389 239L388 117L304 174Z" fill="#2a915b" stroke="#2a915b"></path><path d="M539 301L389 239L379 307Z" fill="#2a915b" stroke="#2a915b"></path><path d="M389 239L471 138L388 117Z" fill="#9eb91c" stroke="#9eb91c"></path><path d="M479 423L379 307L372 363Z" fill="#9eb91c" stroke="#9eb91c"></path><path d="M479 423L539 301L379 307Z" fill="#2a915b" stroke="#2a915b"></path><path d="M539 301L517 180L389 239Z" fill="#078063" stroke="#078063"></path><path d="M286 110L230 160L304 174Z" fill="#198960" stroke="#198960"></path><path d="M304 174L230 160L334 273Z" fill="#3b9955" stroke="#3b9955"></path><path d="M388 117L286 110L304 174Z" fill="#9eb91c" stroke="#9eb91c"></path><path d="M329 419L479 423L372 363Z" fill="#73ae39" stroke="#73ae39"></path><path d="M94 278L211 385L230 332Z" fill="#60a744" stroke="#60a744"></path><path d="M230 332L211 385L329 419Z" fill="#b5bd00" stroke="#b5bd00"></path><path d="M479 423L560 371L539 301Z" fill="#2a915b" stroke="#2a915b"></path><path d="M539 301L630 207L517 180Z" fill="#73ae39" stroke="#73ae39"></path><path d="M315 537L379 508L329 419Z" fill="#b5bd00" stroke="#b5bd00"></path><path d="M329 419L379 508L479 423Z" fill="#078063" stroke="#078063"></path><path d="M601 531L661 431L560 371Z" fill="#198960" stroke="#198960"></path><path d="M661 431L620 330L560 371Z" fill="#9eb91c" stroke="#9eb91c"></path><path d="M560 371L620 330L539 301Z" fill="#9eb91c" stroke="#9eb91c"></path><path d="M630 207L574 107L517 180Z" fill="#b5bd00" stroke="#b5bd00"></path><path d="M517 180L574 107L471 138Z" fill="#198960" stroke="#198960"></path><path d="M471 138L417 0L388 117Z" fill="#007864" stroke="#007864"></path><path d="M232 0L171 85L286 110Z" fill="#3b9955" stroke="#3b9955"></path><path d="M620 330L630 207L539 301Z" fill="#078063" stroke="#078063"></path><path d="M220 500L315 537L329 419Z" fill="#73ae39" stroke="#73ae39"></path><path d="M305 0L286 110L388 117Z" fill="#198960" stroke="#198960"></path><path d="M286 110L171 85L230 160Z" fill="#198960" stroke="#198960"></path><path d="M230 160L94 278L230 332Z" fill="#9eb91c" stroke="#9eb91c"></path><path d="M211 385L220 500L329 419Z" fill="#007864" stroke="#007864"></path><path d="M135 524L220 500L211 385Z" fill="#007864" stroke="#007864"></path><path d="M473 0L417 0L471 138Z" fill="#60a744" stroke="#60a744"></path><path d="M89 231L94 278L230 160Z" fill="#60a744" stroke="#60a744"></path><path d="M421 600L471 530L379 508Z" fill="#73ae39" stroke="#73ae39"></path><path d="M379 508L471 530L479 423Z" fill="#b5bd00" stroke="#b5bd00"></path><path d="M417 0L305 0L388 117Z" fill="#88b32c" stroke="#88b32c"></path><path d="M93 113L89 231L230 160Z" fill="#88b32c" stroke="#88b32c"></path><path d="M574 107L473 0L471 138Z" fill="#198960" stroke="#198960"></path><path d="M305 0L232 0L286 110Z" fill="#3b9955" stroke="#3b9955"></path><path d="M0 327L74 369L94 278Z" fill="#198960" stroke="#198960"></path><path d="M94 278L74 369L211 385Z" fill="#4da04d" stroke="#4da04d"></path><path d="M171 85L93 113L230 160Z" fill="#b5bd00" stroke="#b5bd00"></path><path d="M89 231L0 232L94 278Z" fill="#4da04d" stroke="#4da04d"></path><path d="M108 0L93 113L171 85Z" fill="#9eb91c" stroke="#9eb91c"></path><path d="M601 531L560 371L479 423Z" fill="#73ae39" stroke="#73ae39"></path><path d="M734 196L679 133L630 207Z" fill="#198960" stroke="#198960"></path><path d="M222 600L328 600L315 537Z" fill="#3b9955" stroke="#3b9955"></path><path d="M315 537L328 600L379 508Z" fill="#9eb91c" stroke="#9eb91c"></path><path d="M222 600L315 537L220 500Z" fill="#9eb91c" stroke="#9eb91c"></path><path d="M328 600L421 600L379 508Z" fill="#88b32c" stroke="#88b32c"></path><path d="M471 530L601 531L479 423Z" fill="#078063" stroke="#078063"></path><path d="M630 207L679 133L574 107Z" fill="#4da04d" stroke="#4da04d"></path><path d="M574 107L573 0L473 0Z" fill="#3b9955" stroke="#3b9955"></path><path d="M716 280L630 207L620 330Z" fill="#078063" stroke="#078063"></path><path d="M684 0L573 0L574 107Z" fill="#2a915b" stroke="#2a915b"></path><path d="M661 431L716 280L620 330Z" fill="#078063" stroke="#078063"></path><path d="M74 369L135 524L211 385Z" fill="#078063" stroke="#078063"></path><path d="M421 600L480 600L471 530Z" fill="#2a915b" stroke="#2a915b"></path><path d="M480 600L601 531L471 530Z" fill="#60a744" stroke="#60a744"></path><path d="M135 524L222 600L220 500Z" fill="#60a744" stroke="#60a744"></path><path d="M716 280L734 196L630 207Z" fill="#b5bd00" stroke="#b5bd00"></path><path d="M679 133L684 0L574 107Z" fill="#73ae39" stroke="#73ae39"></path><path d="M0 133L0 232L89 231Z" fill="#60a744" stroke="#60a744"></path><path d="M74 369L0 437L135 524Z" fill="#b5bd00" stroke="#b5bd00"></path><path d="M0 232L0 327L94 278Z" fill="#007864" stroke="#007864"></path><path d="M232 0L108 0L171 85Z" fill="#60a744" stroke="#60a744"></path><path d="M93 113L0 133L89 231Z" fill="#4da04d" stroke="#4da04d"></path><path d="M0 0L0 133L93 113Z" fill="#3b9955" stroke="#3b9955"></path><path d="M802 392L770 278L716 280Z" fill="#007864" stroke="#007864"></path><path d="M716 280L770 278L734 196Z" fill="#2a915b" stroke="#2a915b"></path><path d="M802 392L716 280L661 431Z" fill="#3b9955" stroke="#3b9955"></path><path d="M0 327L0 437L74 369Z" fill="#198960" stroke="#198960"></path><path d="M135 524L71 600L222 600Z" fill="#b5bd00" stroke="#b5bd00"></path><path d="M480 600L612 600L601 531Z" fill="#2a915b" stroke="#2a915b"></path><path d="M601 531L737 535L661 431Z" fill="#60a744" stroke="#60a744"></path><path d="M801 109L679 133L734 196Z" fill="#b5bd00" stroke="#b5bd00"></path><path d="M801 109L684 0L679 133Z" fill="#73ae39" stroke="#73ae39"></path><path d="M770 278L784 215L734 196Z" fill="#198960" stroke="#198960"></path><path d="M0 531L71 600L135 524Z" fill="#078063" stroke="#078063"></path><path d="M737 535L802 392L661 431Z" fill="#73ae39" stroke="#73ae39"></path><path d="M770 278L900 208L784 215Z" fill="#2a915b" stroke="#2a915b"></path><path d="M703 600L737 535L601 531Z" fill="#73ae39" stroke="#73ae39"></path><path d="M0 437L0 531L135 524Z" fill="#198960" stroke="#198960"></path><path d="M108 0L0 0L93 113Z" fill="#9eb91c" stroke="#9eb91c"></path><path d="M784 215L801 109L734 196Z" fill="#198960" stroke="#198960"></path><path d="M900 208L801 109L784 215Z" fill="#b5bd00" stroke="#b5bd00"></path><path d="M612 600L703 600L601 531Z" fill="#007864" stroke="#007864"></path><path d="M801 109L785 0L684 0Z" fill="#60a744" stroke="#60a744"></path><path d="M0 531L0 600L71 600Z" fill="#73ae39" stroke="#73ae39"></path><path d="M796 600L824 513L737 535Z" fill="#3b9955" stroke="#3b9955"></path><path d="M737 535L824 513L802 392Z" fill="#60a744" stroke="#60a744"></path><path d="M802 392L900 318L770 278Z" fill="#4da04d" stroke="#4da04d"></path><path d="M900 406L900 318L802 392Z" fill="#4da04d" stroke="#4da04d"></path><path d="M801 109L900 80L785 0Z" fill="#60a744" stroke="#60a744"></path><path d="M900 318L900 208L770 278Z" fill="#078063" stroke="#078063"></path><path d="M703 600L796 600L737 535Z" fill="#198960" stroke="#198960"></path><path d="M900 465L900 406L802 392Z" fill="#198960" stroke="#198960"></path><path d="M900 465L802 392L824 513Z" fill="#88b32c" stroke="#88b32c"></path><path d="M900 208L900 80L801 109Z" fill="#9eb91c" stroke="#9eb91c"></path><path d="M900 600L900 465L824 513Z" fill="#73ae39" stroke="#73ae39"></path><path d="M900 80L900 0L785 0Z" fill="#73ae39" stroke="#73ae39"></path><path d="M796 600L900 600L824 513Z" fill="#007864" stroke="#007864"></path></g></svg>